<svg xmlns="http://www.w3.org/2000/svg" viewBox="0 0 433.62 114.59"><defs><style>.cls-1{fill:#fff;}</style></defs><title>Asset 6</title><g id="Layer_2" data-name="Layer 2"><g id="Layer_1-2" data-name="Layer 1"><path class="cls-1" d="M103.63,30.73v9.79a8.58,8.58,0,0,0,8.5-8.64V30.77A31.33,31.33,0,0,0,80.8,0h0A31.33,31.33,0,0,0,49.47,31.33V52.16H63.13A20.23,20.23,0,0,1,83.36,72.39v8.12h-3.6V73.68a18.3,18.3,0,0,0-18.3-18.3H46.05v-3.2a9.69,9.69,0,0,0-9.29-9.67l-11-11v11H20.46L0,63,7.65,70.6A8.05,8.05,0,0,0,13.34,73H28.6v5H9V90.38h5.31V84.15l9,10.54H41.73V91.1A14.45,14.45,0,0,1,56.18,76.65H61v3.86H55.37A10.42,10.42,0,0,0,45,90.93l0,15H37a5.11,5.11,0,0,0-5.11,5.11v3.51H70v-3.88h5.48a30.19,30.19,0,0,0,30.21-30.19V54.1a6.94,6.94,0,0,0-6.94-6.94H87.49V30.73ZM20.33,59.57a2.9,2.9,0,1,1,2.9-2.9A2.9,2.9,0,0,1,20.33,59.57Z"/><path class="cls-1" d="M127.21,34.81h14.36q7.35,0,10.91,3.67t3.57,11.38V62.23q0,7.71-3.57,11.38t-10.91,3.67H127.21V69.57H131V42.45h-3.74Zm14.36,34.83q3.9,0,5.46-2c1-1.31,1.55-3.36,1.55-6.15V49.86A8.45,8.45,0,0,0,147,44.34q-1.56-1.89-5.46-1.89h-3.16V69.64Z"/><path class="cls-1" d="M163.85,34.81h25v7.64H171.31v9.71h16.85v7.65H171.31v9.83h18.2v7.64H163.85Z"/><path class="cls-1" d="M195.17,34.81h7.69l7.74,38.47h1l7.74-38.47h7.69l-8.93,42.47h-14Z"/><path class="cls-1" d="M252.49,47.79a6.08,6.08,0,0,0-1.84-4.42,6.87,6.87,0,0,0-5.17-1.89A7.25,7.25,0,0,0,241,42.73a4,4,0,0,0-1.63,3.36,4.86,4.86,0,0,0,.39,2,3.92,3.92,0,0,0,1.39,1.57,10,10,0,0,0,2.6,1.25,32.58,32.58,0,0,0,4.09,1q6.22,1.21,9.5,4.06t3.28,8.44v.73a14,14,0,0,1-1,5.37,11.35,11.35,0,0,1-2.85,4.09,12.86,12.86,0,0,1-4.53,2.61A20.39,20.39,0,0,1,239.4,77a13.58,13.58,0,0,1-4.94-3.28,14,14,0,0,1-3-4.91,18.05,18.05,0,0,1-1-6.16V60.78h7.47v1.45a8.72,8.72,0,0,0,2.06,6.1q2.06,2.28,6.42,2.28a7,7,0,0,0,5-1.58,5.06,5.06,0,0,0,1.64-3.76,5.87,5.87,0,0,0-.34-2,4.22,4.22,0,0,0-1.19-1.7,8.21,8.21,0,0,0-2.32-1.37,19.32,19.32,0,0,0-3.73-1A34.4,34.4,0,0,1,240,57.77a14.82,14.82,0,0,1-4.33-2.33,10,10,0,0,1-2.85-3.64,12.59,12.59,0,0,1-1-5.34v-.37a11.56,11.56,0,0,1,3.76-8.67,12.68,12.68,0,0,1,4.3-2.55,16.32,16.32,0,0,1,5.62-.91A17.14,17.14,0,0,1,251.7,35a13.32,13.32,0,0,1,4.55,2.88A12.16,12.16,0,0,1,259,42.09a13.51,13.51,0,0,1,.93,5v2.18h-7.46Z"/><path class="cls-1" d="M267.64,34.81h25v7.64H275.1v9.71H292v7.65H275.1v9.83h18.21v7.64H267.64Z"/><path class="cls-1" d="M315,70.85a7.76,7.76,0,0,0,3.53-.7,5.34,5.34,0,0,0,2.15-1.88,7.47,7.47,0,0,0,1-2.73,17.52,17.52,0,0,0,.29-3.19V61.26h7.46v1.09q0,7.59-3.7,11.68T315,78.13q-6.79,0-10.75-4.43t-3.95-12.92V51.31a24.7,24.7,0,0,1,1-7.31,15.21,15.21,0,0,1,2.94-5.46,13,13,0,0,1,4.64-3.4A15.27,15.27,0,0,1,315,34a16.46,16.46,0,0,1,6.21,1.09,12,12,0,0,1,4.56,3.16,13.75,13.75,0,0,1,2.77,5,21.52,21.52,0,0,1,.93,6.56v1.09H322V49.74a14.23,14.23,0,0,0-.34-3A8.51,8.51,0,0,0,320.56,44a6.1,6.1,0,0,0-2.15-2,6.85,6.85,0,0,0-3.39-.76,6.48,6.48,0,0,0-3.23.76,6.75,6.75,0,0,0-2.26,2.06,9.24,9.24,0,0,0-1.33,3,15.19,15.19,0,0,0-.42,3.61V61.38a16.72,16.72,0,0,0,.4,3.8,8.82,8.82,0,0,0,1.24,3,5.66,5.66,0,0,0,2.23,2A7.39,7.39,0,0,0,315,70.85Z"/><path class="cls-1" d="M334.92,51.31q0-8.25,3.87-12.8T349.5,34q6.84,0,10.71,4.55t3.88,12.8v9.47q0,8.49-3.88,12.92T349.5,78.13q-6.84,0-10.71-4.43t-3.87-12.92ZM349.5,70.85a7.28,7.28,0,0,0,3.39-.7,5.74,5.74,0,0,0,2.21-2,8.21,8.21,0,0,0,1.18-3,20.34,20.34,0,0,0,.34-3.89V50.83a17.29,17.29,0,0,0-.39-3.76A9,9,0,0,0,355,44a6.31,6.31,0,0,0-2.2-2,7.46,7.46,0,0,0-6.56,0,6.31,6.31,0,0,0-2.2,2,9,9,0,0,0-1.25,3,17.29,17.29,0,0,0-.39,3.76V61.26a20.34,20.34,0,0,0,.34,3.89,8.21,8.21,0,0,0,1.18,3,5.74,5.74,0,0,0,2.21,2A7.28,7.28,0,0,0,349.5,70.85Z"/><path class="cls-1" d="M378.33,61.26v16h-7.46V34.81h15.49a12.33,12.33,0,0,1,5.31,1.06,11.24,11.24,0,0,1,3.76,2.79,11.75,11.75,0,0,1,2.26,4,13.72,13.72,0,0,1,.77,4.52v1.45a14.43,14.43,0,0,1-.77,4.64,12.21,12.21,0,0,1-2.26,4.07,11.19,11.19,0,0,1-3.76,2.88,12,12,0,0,1-5.31,1.09Zm0-7.64h7.29a5.28,5.28,0,0,0,3.93-1.46A5.12,5.12,0,0,0,391,48.4v-.73a5.13,5.13,0,0,0-1.45-3.76,5.28,5.28,0,0,0-3.93-1.46h-7.29Z"/><path class="cls-1" d="M425.48,47.79a6.08,6.08,0,0,0-1.84-4.42,6.87,6.87,0,0,0-5.17-1.89A7.25,7.25,0,0,0,414,42.73a4,4,0,0,0-1.64,3.36,4.86,4.86,0,0,0,.4,2,3.92,3.92,0,0,0,1.39,1.57,10,10,0,0,0,2.6,1.25,32.58,32.58,0,0,0,4.09,1q6.23,1.21,9.5,4.06t3.28,8.44v.73a14,14,0,0,1-1,5.37,11.35,11.35,0,0,1-2.85,4.09,12.86,12.86,0,0,1-4.53,2.61A20.39,20.39,0,0,1,412.39,77a13.58,13.58,0,0,1-4.94-3.28,14,14,0,0,1-3-4.91,18.05,18.05,0,0,1-1-6.16V60.78h7.46v1.45a8.72,8.72,0,0,0,2.07,6.1q2.06,2.28,6.41,2.28a7,7,0,0,0,5-1.58,5.06,5.06,0,0,0,1.64-3.76,5.87,5.87,0,0,0-.34-2,4.22,4.22,0,0,0-1.19-1.7,8.21,8.21,0,0,0-2.32-1.37,19.32,19.32,0,0,0-3.73-1A34.4,34.4,0,0,1,413,57.77a14.82,14.82,0,0,1-4.33-2.33,10,10,0,0,1-2.85-3.64,12.59,12.59,0,0,1-1-5.34v-.37a11.56,11.56,0,0,1,3.76-8.67,12.68,12.68,0,0,1,4.3-2.55,16.32,16.32,0,0,1,5.62-.91A17.14,17.14,0,0,1,424.69,35a13.32,13.32,0,0,1,4.55,2.88A12.16,12.16,0,0,1,432,42.09a13.51,13.51,0,0,1,.93,5v2.18h-7.46Z"/><path class="cls-1" d="M136.65,110.77a6,6,0,0,0,2.25-.37,3.18,3.18,0,0,0,1.37-1,3.43,3.43,0,0,0,.67-1.43,7.7,7.7,0,0,0,.18-1.67v-.57h4.76v.57a7.88,7.88,0,0,1-2.36,6.13q-2.37,2.15-6.87,2.15a9.72,9.72,0,0,1-6.85-2.33q-2.52-2.33-2.52-6.78v-5a10.52,10.52,0,0,1,.65-3.84,7.57,7.57,0,0,1,1.87-2.87,8.31,8.31,0,0,1,3-1.78,11.54,11.54,0,0,1,3.89-.62,12.72,12.72,0,0,1,4,.57,8,8,0,0,1,2.9,1.66,6.82,6.82,0,0,1,1.76,2.61,9.33,9.33,0,0,1,.6,3.44v.57h-4.76v-.57a5.81,5.81,0,0,0-.22-1.59,3.91,3.91,0,0,0-.72-1.44,3.57,3.57,0,0,0-1.37-1,5.08,5.08,0,0,0-2.16-.4,4.85,4.85,0,0,0-2.06.4,4.08,4.08,0,0,0-1.44,1.08,4.49,4.49,0,0,0-.84,1.59,6.66,6.66,0,0,0-.27,1.9v5.6a7.33,7.33,0,0,0,.25,2,4.43,4.43,0,0,0,.79,1.58,3.58,3.58,0,0,0,1.42,1A5.71,5.71,0,0,0,136.65,110.77Z"/><path class="cls-1" d="M154.17,100.52a8.93,8.93,0,0,1,2.47-6.72,11,11,0,0,1,13.67,0,8.93,8.93,0,0,1,2.47,6.72v5c0,3-.83,5.23-2.47,6.78a11.19,11.19,0,0,1-13.67,0c-1.64-1.55-2.47-3.81-2.47-6.78Zm9.3,10.25a5.68,5.68,0,0,0,2.17-.37,3.58,3.58,0,0,0,1.4-1,3.9,3.9,0,0,0,.76-1.6,8.54,8.54,0,0,0,.22-2v-5.48a7.33,7.33,0,0,0-.26-2,4.21,4.21,0,0,0-.79-1.6,3.85,3.85,0,0,0-1.4-1.06,5.69,5.69,0,0,0-4.19,0,3.85,3.85,0,0,0-1.4,1.06,4.38,4.38,0,0,0-.8,1.6,7.76,7.76,0,0,0-.25,2v5.48a8.54,8.54,0,0,0,.22,2,3.9,3.9,0,0,0,.76,1.6,3.51,3.51,0,0,0,1.4,1A5.66,5.66,0,0,0,163.47,110.77Z"/><path class="cls-1" d="M181.07,91.86h8.36l1.45,16.74v3.25h.86V108.6l1.44-16.74h8.37v22.28h-4.33V99.24l.43-5.09h-.86l-1.88,20h-7.13l-1.95-20H185l.44,5.09v14.9h-4.33Z"/><path class="cls-1" d="M209.84,91.86h8.37l1.44,16.74v3.25h.86V108.6L222,91.86h8.36v22.28H226V99.24l.44-5.09h-.87l-1.87,20h-7.14l-2-20h-.86l.43,5.09v14.9h-4.33Z"/><path class="cls-1" d="M256.78,91.86v14.58a7.85,7.85,0,0,1-2.28,6q-2.3,2.17-6.8,2.17t-6.8-2.17a7.85,7.85,0,0,1-2.28-6V91.86h4.75v14.58a4.34,4.34,0,1,0,8.66,0V91.86Z"/><path class="cls-1" d="M277.34,112H278V91.86h4.75v22.28h-9.3L270.49,94h-.65v20.18h-4.76V91.86h9.3Z"/><path class="cls-1" d="M291,91.86h16.87v4h-6.05v14.26h6.05v4H291v-4h6.06V95.87H291Z"/><path class="cls-1" d="M316.21,91.86h18.17v4h-6.71v18.27h-4.76V95.87h-6.7Z"/><path class="cls-1" d="M351,106.31h-1.08l-7.25-14.45h5.19l5.19,10.63h.65l5.19-10.63h5.2l-7.25,14.45h-1.08v7.83H351Z"/></g></g></svg>